<svg xmlns="http://www.w3.org/2000/svg" width="14" height="14" viewBox="-1 -1 16 16" fill="var(--color-text-2)"><path d="M3,9.67v-5.34h-1.33c-0.24,0 -0.46,-0.12 -0.58,-0.33c-0.12,-0.21 -0.12,-0.46 0,-0.67c0.12,-0.2 0.34,-0.33 0.58,-0.33h1.33v-1.33c0,-0.24 0.13,-0.46 0.33,-0.58c0.21,-0.12 0.46,-0.12 0.67,0c0.21,0.12 0.33,0.34 0.33,0.58v1.33h5.34v-1.33c0,-0.37 0.3,-0.67 0.66,-0.67c0.37,0 0.67,0.3 0.67,0.67v1.33h1.33c0.37,0 0.67,0.3 0.67,0.67c0,0.36 -0.3,0.66 -0.67,0.66h-1.33v5.34h1.33c0.37,0 0.67,0.3 0.67,0.66c0,0.37 -0.3,0.67 -0.67,0.67h-1.33v1.33c0,0.37 -0.3,0.67 -0.67,0.67c-0.36,0 -0.66,-0.3 -0.66,-0.67v-1.33h-5.34v1.33c0,0.37 -0.3,0.67 -0.66,0.67c-0.37,0 -0.67,-0.3 -0.67,-0.67v-1.33h-1.33c-0.37,0 -0.67,-0.3 -0.67,-0.67c0,-0.36 0.3,-0.66 0.67,-0.66zM9.67,9.67v-5.34h-5.34v5.34z"></path></svg>