<svg viewBox="0 0 1024 1024" xmlns="http://www.w3.org/2000/svg" width="14" height="14" fill='var(--color-text-2)'><path d="M474.94 289.92H101.55c-20.62 0-37.34-16.72-37.34-37.34 0-20.62 16.72-37.34 37.34-37.34h373.39c20.62 0 37.34 16.72 37.34 37.34 0 20.62-16.71 37.34-37.34 37.34zM923.02 501.51H624.3c-20.62 0-37.34-16.72-37.34-37.34 0-20.62 16.72-37.34 37.34-37.34h298.71c20.62 0 37.34 16.72 37.34 37.34 0 20.62-16.71 37.34-37.33 37.34zM926.96 327.26H695.04c-18.44 0-33.4-14.95-33.4-33.4v-7.88c0-18.44 14.95-33.4 33.4-33.4h231.92c18.44 0 33.4 14.95 33.4 33.4v7.88c-0.01 18.45-14.96 33.4-33.4 33.4zM923.02 675.76H512.28c-20.62 0-37.34-16.72-37.34-37.34 0-20.62 16.72-37.34 37.34-37.34h410.73c20.62 0 37.34 16.72 37.34 37.34 0 20.62-16.71 37.34-37.33 37.34zM925.33 850.01H173.92c-19.35 0-35.03-15.68-35.03-35.03v-4.62c0-19.35 15.68-35.03 35.03-35.03h751.41c19.35 0 35.03 15.68 35.03 35.03v4.62c-0.01 19.35-15.69 35.03-35.03 35.03z" p-id="15488"></path><path d="M250.91 629.91V248.64c0-18.44 14.95-33.4 33.4-33.4h7.88c18.44 0 33.4 14.95 33.4 33.4v381.28c0 18.44-14.95 33.4-33.4 33.4h-7.88c-18.45-0.01-33.4-14.96-33.4-33.41z" p-id="15489"></path></svg>
