<svg height="188" node-id="1" sillyvg="true" template-height="238" template-width="256" version="1.1" viewBox="0 0 256 238" width="206" xmlns="http://www.w3.org/2000/svg" xmlns:xlink="http://www.w3.org/1999/xlink"><defs node-id="498"></defs><g node-id="1008"><g node-id="1011"><path d="M 250.18 114.80 C 250.18 72.98 219.07 39.08 180.69 39.08 C 180.10 39.08 179.51 39.11 178.92 39.13 C 166.80 16.94 144.59 2.07 119.17 2.07 C 80.79 2.07 49.68 35.97 49.68 77.79 C 49.68 78.34 49.70 78.87 49.72 79.41 C 49.72 102.05 14.56 117.03 14.56 145.24 C 14.56 187.05 45.67 220.95 84.05 220.95 C 86.23 220.95 88.39 220.83 90.52 220.62 C 118.67 220.62 122.55 234.08 144.14 234.08 C 179.62 234.08 208.85 219.20 213.08 181.79 C 222.85 155.69 250.18 143.88 250.18 114.80 Z" fill="#165dff" fill-opacity="0.44" fill-rule="nonzero" group-id="1,4" node-id="502" stroke="none" target-height="232.015" target-width="235.623" target-x="14.561" target-y="2.068"/></g><g node-id="1012"><path d="M 246.61 69.87 C 246.61 69.82 246.61 69.77 246.61 69.72 C 246.61 64.38 241.90 60.05 236.09 60.05 C 231.08 60.05 226.89 63.26 225.83 67.56 C 225.66 67.55 225.50 67.54 225.33 67.54 C 221.87 67.54 219.07 70.12 219.07 73.30 C 219.07 73.98 219.19 74.63 219.43 75.24 C 218.46 76.50 217.89 78.04 217.89 79.70 C 217.89 83.91 221.56 87.33 226.12 87.42 L 226.12 87.43 L 242.29 87.43 C 247.84 87.43 252.33 83.30 252.33 78.20 C 252.33 74.53 249.99 71.36 246.61 69.87 Z" fill="#ffffff" fill-rule="nonzero" group-id="1,5" node-id="507" stroke="none" target-height="27.380001" target-width="34.440994" target-x="217.889" target-y="60.048"/><path d="M 242.29 88.93 L 226.12 88.93 C 226.07 88.93 226.03 88.93 225.98 88.92 C 220.68 88.76 216.39 84.64 216.39 79.70 C 216.39 78.02 216.87 76.41 217.78 74.98 C 217.64 74.43 217.56 73.87 217.56 73.30 C 217.56 69.49 220.72 66.35 224.72 66.06 C 226.37 61.58 230.88 58.55 236.08 58.55 C 242.43 58.55 247.64 63.13 248.08 68.92 C 251.60 70.83 253.82 74.38 253.83 78.20 C 253.83 84.12 248.65 88.93 242.29 88.93 Z M 226.21 85.93 L 242.29 85.93 C 247.00 85.93 250.83 82.46 250.83 78.20 C 250.83 75.26 248.93 72.53 246.00 71.25 C 245.46 71.01 245.11 70.47 245.11 69.87 C 245.11 69.85 245.11 69.76 245.11 69.74 C 245.11 65.21 241.06 61.55 236.09 61.55 C 231.90 61.55 228.20 64.23 227.28 67.92 C 227.11 68.64 226.43 69.12 225.71 69.06 C 225.58 69.05 225.46 69.04 225.33 69.04 C 222.70 69.04 220.57 70.95 220.57 73.30 C 220.57 73.78 220.66 74.24 220.83 74.69 C 221.02 75.18 220.94 75.73 220.62 76.15 C 219.81 77.20 219.39 78.42 219.39 79.70 C 219.39 83.06 222.42 85.85 226.15 85.93 C 226.17 85.93 226.19 85.93 226.21 85.93 Z" fill="#ccccde" fill-rule="nonzero" group-id="1,5" node-id="509" stroke="none" target-height="30.380001" target-width="37.440994" target-x="216.388" target-y="58.548"/></g><g node-id="1013"><path d="M 48.31 32.45 C 48.31 32.37 48.32 32.29 48.32 32.21 C 48.32 23.90 40.99 17.17 31.95 17.17 C 24.17 17.17 17.65 22.16 15.99 28.85 C 15.74 28.83 15.48 28.82 15.22 28.82 C 9.85 28.82 5.49 32.83 5.49 37.77 C 5.49 38.83 5.69 39.84 6.06 40.79 C 4.54 42.75 3.66 45.14 3.66 47.72 C 3.66 54.27 9.36 59.60 16.45 59.74 L 16.45 59.74 L 41.60 59.74 C 50.22 59.74 57.21 53.32 57.21 45.40 C 57.21 39.69 53.57 34.75 48.31 32.45 Z" fill="#ffffff" fill-rule="nonzero" group-id="1,6" node-id="513" stroke="none" target-height="42.579" target-width="53.554" target-x="3.656" target-y="17.166"/><path d="M 41.60 61.24 L 16.45 61.24 C 16.39 61.24 16.33 61.24 16.28 61.23 C 8.48 61.01 2.15 54.97 2.15 47.72 C 2.15 45.16 2.92 42.69 4.38 40.53 C 4.12 39.63 3.98 38.71 3.98 37.77 C 3.98 32.11 8.84 27.50 14.87 27.32 C 17.16 20.40 24.01 15.66 31.95 15.66 C 41.54 15.66 49.39 22.70 49.80 31.49 C 55.24 34.25 58.71 39.61 58.71 45.40 C 58.71 54.14 51.03 61.24 41.60 61.24 Z M 16.58 58.24 L 41.60 58.24 C 49.38 58.24 55.71 52.48 55.71 45.40 C 55.71 40.50 52.57 35.95 47.71 33.82 C 47.16 33.58 46.81 33.04 46.81 32.45 L 46.81 32.27 C 46.82 24.74 40.15 18.67 31.95 18.67 C 25.06 18.67 18.96 23.10 17.45 29.21 C 17.28 29.92 16.61 30.41 15.89 30.34 C 15.67 30.33 15.45 30.32 15.22 30.32 C 10.68 30.32 6.99 33.66 6.99 37.77 C 6.99 38.61 7.14 39.45 7.45 40.24 C 7.64 40.73 7.57 41.28 7.24 41.70 C 5.88 43.47 5.16 45.55 5.16 47.72 C 5.16 53.40 10.24 58.11 16.48 58.24 C 16.51 58.24 16.55 58.24 16.58 58.24 Z" fill="#ccccde" fill-rule="nonzero" group-id="1,6" node-id="515" stroke="none" target-height="45.579998" target-width="56.555" target-x="2.154" target-y="15.665"/></g><g node-id="1014"><path d="M 51.49 237.46 L 42.49 237.46 C 41.66 237.46 40.99 236.78 40.99 235.96 C 40.99 235.13 41.66 234.46 42.49 234.46 L 51.49 234.46 C 52.32 234.46 52.99 235.13 52.99 235.96 C 52.99 236.78 52.32 237.46 51.49 237.46 Z" fill="#ccccde" fill-opacity="0.43" fill-rule="nonzero" group-id="1,7" node-id="520" stroke="none" target-height="3" target-width="12" target-x="40.988" target-y="234.455"/></g><path d="M 201.16 52.12 L 180.69 52.12 C 179.87 52.12 179.19 51.45 179.19 50.62 C 179.19 49.79 179.87 49.12 180.69 49.12 L 201.16 49.12 C 201.98 49.12 202.66 49.79 202.66 50.62 C 202.66 51.45 201.98 52.12 201.16 52.12 Z" fill="#ffffff" fill-rule="nonzero" group-id="1" node-id="523" stroke="none" target-height="3" target-width="23.460999" target-x="179.194" target-y="49.123"/><path d="M 219.16 60.12 L 193.16 60.12 C 192.33 60.12 191.66 59.45 191.66 58.62 C 191.66 57.79 192.33 57.12 193.16 57.12 L 219.16 57.12 C 219.98 57.12 220.66 57.79 220.66 58.62 C 220.66 59.45 219.98 60.12 219.16 60.12 Z" fill="#ffffff" fill-rule="nonzero" group-id="1" node-id="525" stroke="none" target-height="3" target-width="29" target-x="191.655" target-y="57.122"/><path d="M 43.16 153.46 L 28.49 153.46 C 27.66 153.46 26.99 152.78 26.99 151.96 C 26.99 151.13 27.66 150.46 28.49 150.46 L 43.16 150.46 C 43.98 150.46 44.66 151.13 44.66 151.96 C 44.66 152.78 43.98 153.46 43.16 153.46 Z" fill="#ffffff" fill-rule="nonzero" group-id="1" node-id="527" stroke="none" target-height="3" target-width="17.666998" target-x="26.988" target-y="150.456"/><path d="M 34.49 168.79 L 23.16 168.79 C 22.33 168.79 21.66 168.12 21.66 167.29 C 21.66 166.46 22.33 165.79 23.16 165.79 L 34.49 165.79 C 35.32 165.79 35.99 166.46 35.99 167.29 C 35.99 168.12 35.32 168.79 34.49 168.79 Z" fill="#ffffff" fill-rule="nonzero" group-id="1" node-id="529" stroke="none" target-height="3" target-width="14.332998" target-x="21.655" target-y="165.789"/><path d="M 42.49 162.12 L 29.82 162.12 C 28.99 162.12 28.32 161.45 28.32 160.62 C 28.32 159.79 28.99 159.12 29.82 159.12 L 42.49 159.12 C 43.32 159.12 43.99 159.79 43.99 160.62 C 43.99 161.45 43.32 162.12 42.49 162.12 Z" fill="#ffffff" fill-rule="nonzero" group-id="1" node-id="531" stroke="none" target-height="3" target-width="15.667" target-x="28.321" target-y="159.123"/><path d="M 183.82 60.12 L 173.16 60.12 C 172.33 60.12 171.66 59.45 171.66 58.62 C 171.66 57.79 172.33 57.12 173.16 57.12 L 183.82 57.12 C 184.65 57.12 185.32 57.79 185.32 58.62 C 185.32 59.45 184.65 60.12 183.82 60.12 Z" fill="#ffffff" fill-rule="nonzero" group-id="1" node-id="533" stroke="none" target-height="3" target-width="13.667999" target-x="171.655" target-y="57.122"/><path d="M 97.82 13.79 L 108.99 13.79 L 108.99 16.79 L 97.82 16.79 Z" fill="#ad7f7f" fill-opacity="0.43" fill-rule="nonzero" group-id="1,8" node-id="537" stroke="none" target-height="3" target-width="11.164001" target-x="97.823" target-y="13.789"/><path d="M 101.91 9.88 L 104.91 9.88 L 104.91 24.19 L 101.91 24.19 Z" fill="#ad7f7f" fill-opacity="0.43" fill-rule="nonzero" group-id="1,8" node-id="539" stroke="none" target-height="14.306" target-width="3" target-x="101.906" target-y="9.882"/><path d="M 204.99 28.29 C 201.35 28.29 198.39 25.33 198.39 21.69 C 198.39 18.05 201.35 15.09 204.99 15.09 C 208.63 15.09 211.59 18.05 211.59 21.69 C 211.59 25.33 208.63 28.29 204.99 28.29 Z M 204.99 18.09 C 203.00 18.09 201.39 19.71 201.39 21.69 C 201.39 23.67 203.00 25.29 204.99 25.29 C 206.97 25.29 208.59 23.67 208.59 21.69 C 208.59 19.71 206.97 18.09 204.99 18.09 Z" fill="#6e967e" fill-opacity="0.38" fill-rule="nonzero" group-id="1,9" node-id="544" stroke="none" target-height="13.198" target-width="13.19899" target-x="198.389" target-y="15.091"/><path d="M 233.91 179.12 L 245.07 179.12 L 245.07 182.12 L 233.91 182.12 Z" fill="#5fc2ff" fill-opacity="0.43" fill-rule="nonzero" group-id="1,10" node-id="549" stroke="none" target-height="3" target-width="11.162994" target-x="233.906" target-y="179.122"/><path d="M 237.99 175.22 L 240.99 175.22 L 240.99 189.52 L 237.99 189.52 Z" fill="#5fc2ff" fill-opacity="0.43" fill-rule="nonzero" group-id="1,10" node-id="551" stroke="none" target-height="14.305008" target-width="3" target-x="237.988" target-y="175.215"/><path d="M 217.82 224.79 C 214.18 224.79 211.22 221.83 211.22 218.19 C 211.22 214.55 214.18 211.59 217.82 211.59 C 221.46 211.59 224.42 214.55 224.42 218.19 C 224.42 221.83 221.46 224.79 217.82 224.79 Z M 217.82 214.59 C 215.84 214.59 214.22 216.21 214.22 218.19 C 214.22 220.18 215.84 221.79 217.82 221.79 C 219.81 221.79 221.42 220.18 221.42 218.19 C 221.42 216.21 219.81 214.59 217.82 214.59 Z" fill="#ff9fcc" fill-opacity="0.38" fill-rule="nonzero" group-id="1,11" node-id="556" stroke="none" target-height="13.199005" target-width="13.19899" target-x="211.223" target-y="211.59"/></g><g node-id="1009"><path d="M 226.51 159.94 C 229.26 156.56 232.10 153.29 234.82 149.98 L 234.82 98.67 L 226.51 98.67 L 226.51 159.94 Z" fill="#dfdfed" fill-rule="nonzero" group-id="2" node-id="561" stroke="none" target-height="61.271996" target-width="8.313004" target-x="226.507" target-y="98.669"/><g node-id="1019"><path d="M 202.49 237.46 L 61.49 237.46 C 60.66 237.46 59.99 236.78 59.99 235.96 C 59.99 235.13 60.66 234.46 61.49 234.46 L 202.49 234.46 C 203.32 234.46 203.99 235.13 203.99 235.96 C 203.99 236.78 203.32 237.46 202.49 237.46 Z" fill="#6e6e96" fill-opacity="0.15" fill-rule="nonzero" group-id="2,12" node-id="565" stroke="none" target-height="3" target-width="144" target-x="59.988" target-y="234.455"/></g><path d="M 61.82 166.12 L 50.16 166.12 C 49.33 166.12 48.66 165.45 48.66 164.62 C 48.66 163.79 49.33 163.12 50.16 163.12 L 61.82 163.12 C 62.65 163.12 63.32 163.79 63.32 164.62 C 63.32 165.45 62.65 166.12 61.82 166.12 Z" fill="#ffffff" fill-rule="nonzero" group-id="2" node-id="568" stroke="none" target-height="3" target-width="14.666" target-x="48.655" target-y="163.123"/><path d="M 200.16 146.46 L 190.16 146.46 C 189.33 146.46 188.66 145.78 188.66 144.96 C 188.66 144.13 189.33 143.46 190.16 143.46 L 200.16 143.46 C 200.98 143.46 201.66 144.13 201.66 144.96 C 201.66 145.78 200.98 146.46 200.16 146.46 Z" fill="#ffffff" fill-rule="nonzero" group-id="2" node-id="570" stroke="none" target-height="3" target-width="13" target-x="188.655" target-y="143.456"/><path d="M 234.82 98.67 L 166.16 98.67 L 166.16 231.59 L 167.51 231.59 C 191.79 225.98 209.83 210.54 213.08 181.79 C 217.87 168.99 226.88 159.63 234.82 149.98 L 234.82 98.67 L 234.82 98.67 Z" fill="#eeeefa" fill-rule="nonzero" group-id="2" node-id="572" stroke="none" target-height="132.919" target-width="68.668" target-x="166.155" target-y="98.669"/><path d="M 172.78 237.00 L 166.16 237.00 C 165.33 237.00 164.66 236.33 164.66 235.50 C 164.66 234.68 165.33 234.00 166.16 234.00 L 172.78 234.00 C 173.61 234.00 174.28 234.68 174.28 235.50 C 174.28 236.33 173.61 237.00 172.78 237.00 Z" fill="#ccccde" fill-opacity="0.43" fill-rule="nonzero" group-id="2,13" node-id="576" stroke="none" target-height="3" target-width="9.624008" target-x="164.655" target-y="234.004"/><path d="M 166.16 98.67 L 174.25 98.67 L 174.25 231.59 L 166.16 231.59 Z" fill="#dfdfed" fill-rule="nonzero" group-id="2,14" node-id="581" stroke="none" target-height="132.919" target-width="8.097" target-x="166.155" target-y="98.669"/><path d="M 174.75 232.09 L 165.65 232.09 L 165.65 98.17 L 174.75 98.17 L 174.75 232.09 Z M 166.66 231.09 L 173.75 231.09 L 173.75 99.17 L 166.66 99.17 L 166.66 231.09 Z" fill="#ccccde" fill-rule="nonzero" group-id="2,14" node-id="583" stroke="none" target-height="133.919" target-width="9.097" target-x="165.654" target-y="98.169"/><path d="M 182.35 108.24 L 218.78 108.24 L 218.78 122.13 L 182.35 122.13 Z" fill="#bebed1" fill-opacity="0.2" fill-rule="nonzero" group-id="2,15,58" node-id="590" stroke="none" target-height="13.897003" target-width="36.432007" target-x="182.347" target-y="108.237"/><path d="M 218.78 123.64 L 182.35 123.64 C 181.52 123.64 180.85 122.96 180.85 122.14 L 180.85 108.24 C 180.85 107.41 181.52 106.74 182.35 106.74 L 218.78 106.74 C 219.61 106.74 220.28 107.41 220.28 108.24 L 220.28 122.14 C 220.28 122.96 219.61 123.64 218.78 123.64 Z M 183.85 120.64 L 217.28 120.64 L 217.28 109.74 L 183.85 109.74 L 183.85 120.64 Z" fill="#6e6e96" fill-opacity="0.2" fill-rule="nonzero" group-id="2,15,58" node-id="592" stroke="none" target-height="16.897003" target-width="39.432007" target-x="180.847" target-y="106.738"/><path d="M 182.35 132.91 L 218.78 132.91 L 218.78 146.81 L 182.35 146.81 Z" fill="#bebed1" fill-opacity="0.2" fill-rule="nonzero" group-id="2,15,59" node-id="597" stroke="none" target-height="13.897003" target-width="36.432007" target-x="182.347" target-y="132.915"/><path d="M 218.78 148.31 L 182.35 148.31 C 181.52 148.31 180.85 147.64 180.85 146.81 L 180.85 132.91 C 180.85 132.09 181.52 131.41 182.35 131.41 L 218.78 131.41 C 219.61 131.41 220.28 132.09 220.28 132.91 L 220.28 146.81 C 220.28 147.64 219.61 148.31 218.78 148.31 Z M 183.85 145.31 L 217.28 145.31 L 217.28 134.41 L 183.85 134.41 L 183.85 145.31 Z" fill="#6e6e96" fill-opacity="0.2" fill-rule="nonzero" group-id="2,15,59" node-id="599" stroke="none" target-height="16.897003" target-width="39.432007" target-x="180.847" target-y="131.415"/><path d="M 182.35 157.59 L 218.78 157.59 L 218.78 171.49 L 182.35 171.49 Z" fill="#bebed1" fill-opacity="0.2" fill-rule="nonzero" group-id="2,15,60" node-id="604" stroke="none" target-height="13.89801" target-width="36.432007" target-x="182.347" target-y="157.592"/><path d="M 218.78 172.99 L 182.35 172.99 C 181.52 172.99 180.85 172.32 180.85 171.49 L 180.85 157.59 C 180.85 156.76 181.52 156.09 182.35 156.09 L 218.78 156.09 C 219.61 156.09 220.28 156.76 220.28 157.59 L 220.28 171.49 C 220.28 172.32 219.61 172.99 218.78 172.99 Z M 183.85 169.99 L 217.28 169.99 L 217.28 159.09 L 183.85 159.09 L 183.85 169.99 Z" fill="#6e6e96" fill-opacity="0.2" fill-rule="nonzero" group-id="2,15,60" node-id="606" stroke="none" target-height="16.89801" target-width="39.432007" target-x="180.847" target-y="156.092"/><path d="M 209.90 196.17 L 182.35 196.17 L 182.35 182.27 L 213.02 182.27" fill="#bebed1" fill-opacity="0.2" fill-rule="nonzero" group-id="2,15,61" node-id="611" stroke="none" target-height="13.897995" target-width="30.675995" target-x="182.347" target-y="182.27"/><path d="M 209.90 197.67 L 182.35 197.67 C 181.52 197.67 180.85 197.00 180.85 196.17 L 180.85 182.27 C 180.85 181.44 181.52 180.77 182.35 180.77 L 213.02 180.77 C 213.85 180.77 214.52 181.44 214.52 182.27 C 214.52 183.10 213.85 183.77 213.02 183.77 L 183.85 183.77 L 183.85 194.67 L 209.90 194.67 C 210.72 194.67 211.40 195.34 211.40 196.17 C 211.40 197.00 210.72 197.67 209.90 197.67 Z" fill="#6e6e96" fill-opacity="0.2" fill-rule="nonzero" group-id="2,15,61" node-id="613" stroke="none" target-height="16.897995" target-width="33.675995" target-x="180.847" target-y="180.77"/><path d="M 191.89 220.85 L 182.35 220.85 L 182.35 206.95 L 204.78 206.95" fill="#bebed1" fill-opacity="0.2" fill-rule="nonzero" group-id="2,15,62" node-id="618" stroke="none" target-height="13.898987" target-width="22.432999" target-x="182.347" target-y="206.947"/><path d="M 191.89 222.35 L 182.35 222.35 C 181.52 222.35 180.85 221.67 180.85 220.85 L 180.85 206.95 C 180.85 206.12 181.52 205.45 182.35 205.45 L 204.78 205.45 C 205.61 205.45 206.28 206.12 206.28 206.95 C 206.28 207.78 205.61 208.45 204.78 208.45 L 183.85 208.45 L 183.85 219.35 L 191.89 219.35 C 192.72 219.35 193.39 220.02 193.39 220.85 C 193.39 221.67 192.72 222.35 191.89 222.35 Z" fill="#6e6e96" fill-opacity="0.2" fill-rule="nonzero" group-id="2,15,62" node-id="620" stroke="none" target-height="16.897995" target-width="25.432999" target-x="180.847" target-y="205.448"/><path d="M 226.51 159.94 C 229.26 156.56 232.10 153.29 234.82 149.98 L 234.82 98.67 L 226.51 98.67 L 226.51 159.94 Z" fill="#dfdfed" fill-rule="nonzero" group-id="2" node-id="624" stroke="none" target-height="61.271996" target-width="8.313004" target-x="226.507" target-y="98.669"/><path d="M 215.22 114.86 C 215.22 116.22 214.12 117.31 212.77 117.31 C 211.41 117.31 210.31 116.22 210.31 114.86 C 210.31 113.51 211.41 112.41 212.77 112.41 C 214.12 112.41 215.22 113.51 215.22 114.86 Z" fill="#ffabba" fill-opacity="0.2" fill-rule="nonzero" group-id="2,16" node-id="628" stroke="none" target-height="4.9080048" target-width="4.9080048" target-x="210.314" target-y="112.407"/><path d="M 212.77 118.81 C 210.59 118.81 208.81 117.04 208.81 114.86 C 208.81 112.68 210.59 110.91 212.77 110.91 C 214.95 110.91 216.72 112.68 216.72 114.86 C 216.72 117.04 214.95 118.81 212.77 118.81 Z M 212.77 113.91 C 212.24 113.91 211.81 114.33 211.81 114.86 C 211.81 115.39 212.24 115.81 212.77 115.81 C 213.29 115.81 213.72 115.39 213.72 114.86 C 213.72 114.33 213.29 113.91 212.77 113.91 Z" fill="#6e6e96" fill-opacity="0.2" fill-rule="nonzero" group-id="2,16" node-id="630" stroke="none" target-height="7.9080048" target-width="7.9080048" target-x="208.814" target-y="110.907"/><path d="M 215.22 139.64 C 215.22 141.00 214.12 142.09 212.77 142.09 C 211.41 142.09 210.31 141.00 210.31 139.64 C 210.31 138.28 211.41 137.19 212.77 137.19 C 214.12 137.19 215.22 138.28 215.22 139.64 Z" fill="#bcffab" fill-opacity="0.2" fill-rule="nonzero" group-id="2,17" node-id="635" stroke="none" target-height="4.9079895" target-width="4.9080048" target-x="210.314" target-y="137.186"/><path d="M 212.77 143.59 C 210.59 143.59 208.81 141.82 208.81 139.64 C 208.81 137.46 210.59 135.69 212.77 135.69 C 214.95 135.69 216.72 137.46 216.72 139.64 C 216.72 141.82 214.95 143.59 212.77 143.59 Z M 212.77 138.69 C 212.24 138.69 211.81 139.12 211.81 139.64 C 211.81 140.17 212.24 140.59 212.77 140.59 C 213.29 140.59 213.72 140.17 213.72 139.64 C 213.72 139.11 213.29 138.69 212.77 138.69 Z" fill="#6e6e96" fill-opacity="0.2" fill-rule="nonzero" group-id="2,17" node-id="637" stroke="none" target-height="7.9079895" target-width="7.9080048" target-x="208.814" target-y="135.686"/><path d="M 215.22 165.15 C 215.22 166.50 214.12 167.60 212.77 167.60 C 211.41 167.60 210.31 166.50 210.31 165.15 C 210.31 163.79 211.41 162.69 212.77 162.69 C 214.12 162.69 215.22 163.79 215.22 165.15 Z" fill="#ffabba" fill-opacity="0.2" fill-rule="nonzero" group-id="2,18" node-id="642" stroke="none" target-height="4.9080048" target-width="4.9080048" target-x="210.314" target-y="162.692"/><path d="M 212.77 169.10 C 210.59 169.10 208.81 167.33 208.81 165.15 C 208.81 162.97 210.59 161.19 212.77 161.19 C 214.95 161.19 216.72 162.97 216.72 165.15 C 216.72 167.32 214.95 169.10 212.77 169.10 Z M 212.77 164.19 C 212.24 164.19 211.81 164.62 211.81 165.14 C 211.81 165.67 212.24 166.10 212.77 166.10 C 213.29 166.10 213.72 165.67 213.72 165.14 C 213.72 164.62 213.29 164.19 212.77 164.19 Z" fill="#6e6e96" fill-opacity="0.2" fill-rule="nonzero" group-id="2,18" node-id="644" stroke="none" target-height="7.9080048" target-width="7.9080048" target-x="208.814" target-y="161.192"/><path d="M 185.45 111.55 L 188.45 111.55 L 188.45 117.31 L 185.45 117.31 Z" fill="#6e6e96" fill-opacity="0.2" fill-rule="nonzero" group-id="2,19" node-id="649" stroke="none" target-height="5.765999" target-width="3" target-x="185.448" target-y="111.549"/><path d="M 189.68 111.55 L 192.68 111.55 L 192.68 117.31 L 189.68 117.31 Z" fill="#6e6e96" fill-opacity="0.2" fill-rule="nonzero" group-id="2,19" node-id="651" stroke="none" target-height="5.765999" target-width="3" target-x="189.679" target-y="111.549"/><path d="M 193.73 111.55 L 196.73 111.55 L 196.73 117.31 L 193.73 117.31 Z" fill="#6e6e96" fill-opacity="0.2" fill-rule="nonzero" group-id="2,19" node-id="653" stroke="none" target-height="5.765999" target-width="3" target-x="193.727" target-y="111.549"/><path d="M 185.45 136.94 L 188.45 136.94 L 188.45 142.71 L 185.45 142.71 Z" fill="#6e6e96" fill-opacity="0.2" fill-rule="nonzero" group-id="2,20" node-id="658" stroke="none" target-height="5.7660065" target-width="3" target-x="185.448" target-y="136.941"/><path d="M 189.68 136.94 L 192.68 136.94 L 192.68 142.71 L 189.68 142.71 Z" fill="#6e6e96" fill-opacity="0.2" fill-rule="nonzero" group-id="2,20" node-id="660" stroke="none" target-height="5.7660065" target-width="3" target-x="189.679" target-y="136.941"/><path d="M 193.73 136.94 L 196.73 136.94 L 196.73 142.71 L 193.73 142.71 Z" fill="#6e6e96" fill-opacity="0.2" fill-rule="nonzero" group-id="2,20" node-id="662" stroke="none" target-height="5.7660065" target-width="3" target-x="193.727" target-y="136.941"/><path d="M 185.45 161.78 L 188.45 161.78 L 188.45 167.55 L 185.45 167.55 Z" fill="#6e6e96" fill-opacity="0.2" fill-rule="nonzero" group-id="2,21" node-id="667" stroke="none" target-height="5.765991" target-width="3" target-x="185.448" target-y="161.781"/><path d="M 189.68 161.78 L 192.68 161.78 L 192.68 167.55 L 189.68 167.55 Z" fill="#6e6e96" fill-opacity="0.2" fill-rule="nonzero" group-id="2,21" node-id="669" stroke="none" target-height="5.765991" target-width="3" target-x="189.679" target-y="161.781"/><path d="M 193.73 161.78 L 196.73 161.78 L 196.73 167.55 L 193.73 167.55 Z" fill="#6e6e96" fill-opacity="0.2" fill-rule="nonzero" group-id="2,21" node-id="671" stroke="none" target-height="5.765991" target-width="3" target-x="193.727" target-y="161.781"/><path d="M 185.45 186.07 L 188.45 186.07 L 188.45 191.84 L 185.45 191.84 Z" fill="#6e6e96" fill-opacity="0.2" fill-rule="nonzero" group-id="2,22" node-id="676" stroke="none" target-height="5.7670135" target-width="3" target-x="185.448" target-y="186.068"/><path d="M 189.68 186.07 L 192.68 186.07 L 192.68 191.84 L 189.68 191.84 Z" fill="#6e6e96" fill-opacity="0.2" fill-rule="nonzero" group-id="2,22" node-id="678" stroke="none" target-height="5.7670135" target-width="3" target-x="189.679" target-y="186.068"/><path d="M 193.73 186.07 L 196.73 186.07 L 196.73 191.84 L 193.73 191.84 Z" fill="#6e6e96" fill-opacity="0.2" fill-rule="nonzero" group-id="2,22" node-id="680" stroke="none" target-height="5.7670135" target-width="3" target-x="193.727" target-y="186.068"/><path d="M 185.45 210.73 L 188.45 210.73 L 188.45 216.49 L 185.45 216.49 Z" fill="#6e6e96" fill-opacity="0.2" fill-rule="nonzero" group-id="2,23" node-id="685" stroke="none" target-height="5.7649994" target-width="3" target-x="185.448" target-y="210.727"/><path d="M 189.68 210.73 L 192.68 210.73 L 192.68 216.49 L 189.68 216.49 Z" fill="#6e6e96" fill-opacity="0.2" fill-rule="nonzero" group-id="2,23" node-id="687" stroke="none" target-height="5.7649994" target-width="3" target-x="189.679" target-y="210.727"/><path d="M 193.73 210.73 L 196.73 210.73 L 196.73 216.49 L 193.73 216.49 Z" fill="#6e6e96" fill-opacity="0.2" fill-rule="nonzero" group-id="2,23" node-id="689" stroke="none" target-height="5.7649994" target-width="3" target-x="193.727" target-y="210.727"/><path d="M 174.25 233.09 L 166.15 233.09 C 165.33 233.09 164.65 232.42 164.65 231.59 L 164.65 98.67 C 164.65 97.84 165.33 97.17 166.15 97.17 L 174.25 97.17 C 175.08 97.17 175.75 97.84 175.75 98.67 L 175.75 231.59 C 175.75 232.42 175.08 233.09 174.25 233.09 Z M 167.66 230.09 L 172.75 230.09 L 172.75 100.17 L 167.66 100.17 L 167.66 230.09 Z" fill="#ccccde" fill-rule="nonzero" group-id="2" node-id="692" stroke="none" target-height="135.919" target-width="11.097" target-x="164.654" target-y="97.169"/><path d="M 226.51 161.44 C 225.68 161.44 225.01 160.77 225.01 159.94 L 225.01 98.67 C 225.01 97.84 225.68 97.17 226.51 97.17 L 234.82 97.17 C 235.65 97.17 236.32 97.84 236.32 98.67 L 236.32 147.29 C 236.32 148.12 235.65 148.79 234.82 148.79 C 233.99 148.79 233.32 148.12 233.32 147.29 L 233.32 100.17 L 228.01 100.17 L 228.01 159.94 C 228.01 160.77 227.34 161.44 226.51 161.44 Z" fill="#ccccde" fill-rule="nonzero" group-id="2" node-id="694" stroke="none" target-height="64.271996" target-width="11.315002" target-x="225.007" target-y="97.169"/><path d="M 166.16 233.09 C 165.33 233.09 164.66 232.42 164.66 231.59 L 164.66 98.67 C 164.66 97.84 165.33 97.17 166.16 97.17 L 234.82 97.17 C 235.65 97.17 236.32 97.84 236.32 98.67 L 236.32 149.29 C 236.32 150.12 235.65 150.79 234.82 150.79 C 234.00 150.79 233.32 150.12 233.32 149.29 L 233.32 100.17 L 167.66 100.17 L 167.66 231.59 C 167.66 232.42 166.98 233.09 166.16 233.09 Z" fill="#ccccde" fill-rule="nonzero" group-id="2" node-id="696" stroke="none" target-height="135.919" target-width="71.668" target-x="164.655" target-y="97.169"/><path d="M 50.28 237.00 L 43.66 237.00 C 42.83 237.00 42.16 236.33 42.16 235.50 C 42.16 234.68 42.83 234.00 43.66 234.00 L 50.28 234.00 C 51.11 234.00 51.78 234.68 51.78 235.50 C 51.78 236.33 51.11 237.00 50.28 237.00 Z" fill="#ccccde" fill-opacity="0.43" fill-rule="nonzero" group-id="2,24" node-id="700" stroke="none" target-height="3" target-width="9.624001" target-x="42.155" target-y="234.004"/><path d="M 80.01 98.67 L 88.32 98.67 L 88.32 231.59 L 80.01 231.59 Z" fill="#dfdfed" fill-rule="nonzero" group-id="2" node-id="703" stroke="none" target-height="132.919" target-width="8.312996" target-x="80.007" target-y="98.669"/><path d="M 20.88 99.90 C 16.13 105.75 21.11 124.35 19.65 126.96 L 19.65 173.70 C 29.98 201.41 54.91 220.95 84.05 220.95 C 85.48 220.95 86.91 220.88 88.32 220.79 L 88.32 98.67 L 41.83 98.67 C 40.13 100.93 25.64 94.04 20.88 99.90 Z" fill="#eeeefa" fill-rule="nonzero" group-id="2" node-id="705" stroke="none" target-height="126.912" target-width="72.194" target-x="16.126" target-y="94.041"/><path d="M 35.85 108.24 L 72.28 108.24 L 72.28 122.13 L 35.85 122.13 Z" fill="#bebed1" fill-opacity="0.2" fill-rule="nonzero" group-id="2,25,63" node-id="711" stroke="none" target-height="13.897003" target-width="36.432" target-x="35.847" target-y="108.237"/><path d="M 72.28 123.64 L 35.85 123.64 C 35.02 123.64 34.35 122.96 34.35 122.14 L 34.35 108.24 C 34.35 107.41 35.02 106.74 35.85 106.74 L 72.28 106.74 C 73.11 106.74 73.78 107.41 73.78 108.24 L 73.78 122.14 C 73.78 122.96 73.11 123.64 72.28 123.64 Z M 37.35 120.64 L 70.78 120.64 L 70.78 109.74 L 37.35 109.74 L 37.35 120.64 Z" fill="#6e6e96" fill-opacity="0.2" fill-rule="nonzero" group-id="2,25,63" node-id="713" stroke="none" target-height="16.897003" target-width="39.432" target-x="34.347" target-y="106.738"/><path d="M 35.85 132.91 L 72.28 132.91 L 72.28 146.81 L 35.85 146.81 Z" fill="#bebed1" fill-opacity="0.2" fill-rule="nonzero" group-id="2,25,64" node-id="718" stroke="none" target-height="13.897003" target-width="36.432" target-x="35.847" target-y="132.915"/><path d="M 72.28 148.31 L 35.85 148.31 C 35.02 148.31 34.35 147.64 34.35 146.81 L 34.35 132.91 C 34.35 132.09 35.02 131.41 35.85 131.41 L 72.28 131.41 C 73.11 131.41 73.78 132.09 73.78 132.91 L 73.78 146.81 C 73.78 147.64 73.11 148.31 72.28 148.31 Z M 37.35 145.31 L 70.78 145.31 L 70.78 134.41 L 37.35 134.41 L 37.35 145.31 Z" fill="#6e6e96" fill-opacity="0.2" fill-rule="nonzero" group-id="2,25,64" node-id="720" stroke="none" target-height="16.897003" target-width="39.432" target-x="34.347" target-y="131.415"/><path d="M 35.85 157.59 L 72.28 157.59 L 72.28 171.49 L 35.85 171.49 Z" fill="#bebed1" fill-opacity="0.2" fill-rule="nonzero" group-id="2,25,65" node-id="725" stroke="none" target-height="13.89801" target-width="36.432" target-x="35.847" target-y="157.592"/><path d="M 72.28 172.99 L 35.85 172.99 C 35.02 172.99 34.35 172.32 34.35 171.49 L 34.35 157.59 C 34.35 156.76 35.02 156.09 35.85 156.09 L 72.28 156.09 C 73.11 156.09 73.78 156.76 73.78 157.59 L 73.78 171.49 C 73.78 172.32 73.11 172.99 72.28 172.99 Z M 37.35 169.99 L 70.78 169.99 L 70.78 159.09 L 37.35 159.09 L 37.35 169.99 Z" fill="#6e6e96" fill-opacity="0.2" fill-rule="nonzero" group-id="2,25,65" node-id="727" stroke="none" target-height="16.89801" target-width="39.432" target-x="34.347" target-y="156.092"/><path d="M 35.85 182.27 L 72.28 182.27 L 72.28 196.17 L 35.85 196.17 Z" fill="#bebed1" fill-opacity="0.2" fill-rule="nonzero" group-id="2,25,66" node-id="732" stroke="none" target-height="13.897995" target-width="36.432" target-x="35.847" target-y="182.27"/><path d="M 72.28 197.67 L 35.85 197.67 C 35.02 197.67 34.35 197.00 34.35 196.17 L 34.35 182.27 C 34.35 181.44 35.02 180.77 35.85 180.77 L 72.28 180.77 C 73.11 180.77 73.78 181.44 73.78 182.27 L 73.78 196.17 C 73.78 197.00 73.11 197.67 72.28 197.67 Z M 37.35 194.67 L 70.78 194.67 L 70.78 183.77 L 37.35 183.77 L 37.35 194.67 Z" fill="#6e6e96" fill-opacity="0.2" fill-rule="nonzero" group-id="2,25,66" node-id="734" stroke="none" target-height="16.897995" target-width="39.432" target-x="34.347" target-y="180.77"/><path d="M 68.72 114.86 C 68.72 116.22 67.62 117.31 66.27 117.31 C 64.91 117.31 63.81 116.22 63.81 114.86 C 63.81 113.51 64.91 112.41 66.27 112.41 C 67.62 112.41 68.72 113.51 68.72 114.86 Z" fill="#ffabba" fill-opacity="0.2" fill-rule="nonzero" group-id="2,26" node-id="740" stroke="none" target-height="4.9080048" target-width="4.908001" target-x="63.814" target-y="112.407"/><path d="M 66.27 118.81 C 64.09 118.81 62.31 117.04 62.31 114.86 C 62.31 112.68 64.09 110.91 66.27 110.91 C 68.45 110.91 70.22 112.68 70.22 114.86 C 70.22 117.04 68.45 118.81 66.27 118.81 Z M 66.27 113.91 C 65.74 113.91 65.31 114.33 65.31 114.86 C 65.31 115.39 65.74 115.81 66.27 115.81 C 66.79 115.81 67.22 115.39 67.22 114.86 C 67.22 114.33 66.79 113.91 66.27 113.91 Z" fill="#6e6e96" fill-opacity="0.2" fill-rule="nonzero" group-id="2,26" node-id="742" stroke="none" target-height="7.9080048" target-width="7.908001" target-x="62.314" target-y="110.907"/><path d="M 68.72 139.64 C 68.72 141.00 67.62 142.09 66.27 142.09 C 64.91 142.09 63.81 141.00 63.81 139.64 C 63.81 138.28 64.91 137.19 66.27 137.19 C 67.62 137.19 68.72 138.28 68.72 139.64 Z" fill="#bcffab" fill-opacity="0.2" fill-rule="nonzero" group-id="2,27" node-id="747" stroke="none" target-height="4.9079895" target-width="4.908001" target-x="63.814" target-y="137.186"/><path d="M 66.27 143.59 C 64.09 143.59 62.31 141.82 62.31 139.64 C 62.31 137.46 64.09 135.69 66.27 135.69 C 68.45 135.69 70.22 137.46 70.22 139.64 C 70.22 141.82 68.45 143.59 66.27 143.59 Z M 66.27 138.69 C 65.74 138.69 65.31 139.12 65.31 139.64 C 65.31 140.17 65.74 140.59 66.27 140.59 C 66.79 140.59 67.22 140.17 67.22 139.64 C 67.22 139.11 66.79 138.69 66.27 138.69 Z" fill="#6e6e96" fill-opacity="0.2" fill-rule="nonzero" group-id="2,27" node-id="749" stroke="none" target-height="7.9079895" target-width="7.908001" target-x="62.314" target-y="135.686"/><path d="M 68.72 165.15 C 68.72 166.50 67.62 167.60 66.27 167.60 C 64.91 167.60 63.81 166.50 63.81 165.15 C 63.81 163.79 64.91 162.69 66.27 162.69 C 67.62 162.69 68.72 163.79 68.72 165.15 Z" fill="#ffabba" fill-opacity="0.2" fill-rule="nonzero" group-id="2,28" node-id="754" stroke="none" target-height="4.9080048" target-width="4.908001" target-x="63.814" target-y="162.692"/><path d="M 66.27 169.10 C 64.09 169.10 62.31 167.33 62.31 165.15 C 62.31 162.97 64.09 161.19 66.27 161.19 C 68.45 161.19 70.22 162.97 70.22 165.15 C 70.22 167.32 68.45 169.10 66.27 169.10 Z M 66.27 164.19 C 65.74 164.19 65.31 164.62 65.31 165.14 C 65.31 165.67 65.74 166.10 66.27 166.10 C 66.79 166.10 67.22 165.67 67.22 165.14 C 67.22 164.62 66.79 164.19 66.27 164.19 Z" fill="#6e6e96" fill-opacity="0.2" fill-rule="nonzero" group-id="2,28" node-id="756" stroke="none" target-height="7.9080048" target-width="7.908001" target-x="62.314" target-y="161.192"/><path d="M 68.72 189.20 C 68.72 190.55 67.62 191.65 66.27 191.65 C 64.91 191.65 63.81 190.55 63.81 189.20 C 63.81 187.84 64.91 186.74 66.27 186.74 C 67.62 186.74 68.72 187.84 68.72 189.20 Z" fill="#bcffab" fill-opacity="0.2" fill-rule="nonzero" group-id="2,29" node-id="761" stroke="none" target-height="4.9080048" target-width="4.908001" target-x="63.814" target-y="186.743"/><path d="M 66.27 193.15 C 64.09 193.15 62.31 191.38 62.31 189.20 C 62.31 187.02 64.09 185.24 66.27 185.24 C 68.45 185.24 70.22 187.02 70.22 189.20 C 70.22 191.38 68.45 193.15 66.27 193.15 Z M 66.27 188.24 C 65.74 188.24 65.31 188.67 65.31 189.20 C 65.31 189.72 65.74 190.15 66.27 190.15 C 66.79 190.15 67.22 189.72 67.22 189.20 C 67.22 188.67 66.79 188.24 66.27 188.24 Z" fill="#6e6e96" fill-opacity="0.2" fill-rule="nonzero" group-id="2,29" node-id="763" stroke="none" target-height="7.9069977" target-width="7.908001" target-x="62.314" target-y="185.243"/><path d="M 38.95 111.55 L 41.95 111.55 L 41.95 117.31 L 38.95 117.31 Z" fill="#6e6e96" fill-opacity="0.2" fill-rule="nonzero" group-id="2,30" node-id="768" stroke="none" target-height="5.765999" target-width="3" target-x="38.947" target-y="111.549"/><path d="M 43.18 111.55 L 46.18 111.55 L 46.18 117.31 L 43.18 117.31 Z" fill="#6e6e96" fill-opacity="0.2" fill-rule="nonzero" group-id="2,30" node-id="770" stroke="none" target-height="5.765999" target-width="3" target-x="43.179" target-y="111.549"/><path d="M 47.23 111.55 L 50.23 111.55 L 50.23 117.31 L 47.23 117.31 Z" fill="#6e6e96" fill-opacity="0.2" fill-rule="nonzero" group-id="2,30" node-id="772" stroke="none" target-height="5.765999" target-width="3" target-x="47.227" target-y="111.549"/><path d="M 38.95 136.94 L 41.95 136.94 L 41.95 142.71 L 38.95 142.71 Z" fill="#6e6e96" fill-opacity="0.2" fill-rule="nonzero" group-id="2,31" node-id="777" stroke="none" target-height="5.7660065" target-width="3" target-x="38.947" target-y="136.941"/><path d="M 43.18 136.94 L 46.18 136.94 L 46.18 142.71 L 43.18 142.71 Z" fill="#6e6e96" fill-opacity="0.2" fill-rule="nonzero" group-id="2,31" node-id="779" stroke="none" target-height="5.7660065" target-width="3" target-x="43.179" target-y="136.941"/><path d="M 47.23 136.94 L 50.23 136.94 L 50.23 142.71 L 47.23 142.71 Z" fill="#6e6e96" fill-opacity="0.2" fill-rule="nonzero" group-id="2,31" node-id="781" stroke="none" target-height="5.7660065" target-width="3" target-x="47.227" target-y="136.941"/><path d="M 38.95 161.78 L 41.95 161.78 L 41.95 167.55 L 38.95 167.55 Z" fill="#6e6e96" fill-opacity="0.2" fill-rule="nonzero" group-id="2,32" node-id="786" stroke="none" target-height="5.765991" target-width="3" target-x="38.947" target-y="161.781"/><path d="M 43.18 161.78 L 46.18 161.78 L 46.18 167.55 L 43.18 167.55 Z" fill="#6e6e96" fill-opacity="0.2" fill-rule="nonzero" group-id="2,32" node-id="788" stroke="none" target-height="5.765991" target-width="3" target-x="43.179" target-y="161.781"/><path d="M 47.23 161.78 L 50.23 161.78 L 50.23 167.55 L 47.23 167.55 Z" fill="#6e6e96" fill-opacity="0.2" fill-rule="nonzero" group-id="2,32" node-id="790" stroke="none" target-height="5.765991" target-width="3" target-x="47.227" target-y="161.781"/><path d="M 38.95 186.07 L 41.95 186.07 L 41.95 191.84 L 38.95 191.84 Z" fill="#6e6e96" fill-opacity="0.2" fill-rule="nonzero" group-id="2,33" node-id="795" stroke="none" target-height="5.7670135" target-width="3" target-x="38.947" target-y="186.068"/><path d="M 43.18 186.07 L 46.18 186.07 L 46.18 191.84 L 43.18 191.84 Z" fill="#6e6e96" fill-opacity="0.2" fill-rule="nonzero" group-id="2,33" node-id="797" stroke="none" target-height="5.7670135" target-width="3" target-x="43.179" target-y="186.068"/><path d="M 47.23 186.07 L 50.23 186.07 L 50.23 191.84 L 47.23 191.84 Z" fill="#6e6e96" fill-opacity="0.2" fill-rule="nonzero" group-id="2,33" node-id="799" stroke="none" target-height="5.7670135" target-width="3" target-x="47.227" target-y="186.068"/><path d="M 27.75 188.33 C 26.92 188.33 26.25 187.66 26.25 186.83 L 26.25 100.17 L 21.15 100.17 L 21.15 173.73 C 21.15 174.56 20.48 175.23 19.65 175.23 C 18.82 175.23 18.15 174.56 18.15 173.73 L 18.15 98.67 C 18.15 97.84 18.82 97.17 19.65 97.17 L 27.75 97.17 C 28.58 97.17 29.25 97.84 29.25 98.67 L 29.25 186.83 C 29.25 187.66 28.58 188.33 27.75 188.33 Z" fill="#ccccde" fill-rule="nonzero" group-id="2" node-id="802" stroke="none" target-height="91.161" target-width="11.096001" target-x="18.154" target-y="97.169"/><path d="M 88.32 233.09 L 80.01 233.09 C 79.18 233.09 78.51 232.42 78.51 231.59 L 78.51 98.67 C 78.51 97.84 79.18 97.17 80.01 97.17 L 88.32 97.17 C 89.15 97.17 89.82 97.84 89.82 98.67 L 89.82 231.59 C 89.82 232.42 89.15 233.09 88.32 233.09 Z M 81.51 230.09 L 86.82 230.09 L 86.82 100.17 L 81.51 100.17 L 81.51 230.09 Z" fill="#ccccde" fill-rule="nonzero" group-id="2" node-id="804" stroke="none" target-height="135.919" target-width="11.312996" target-x="78.508" target-y="97.169"/><path d="M 88.32 233.09 C 87.49 233.09 86.82 232.42 86.82 231.59 L 86.82 100.17 L 21.16 100.17 L 21.16 172.29 C 21.16 173.12 20.48 173.79 19.66 173.79 C 18.83 173.79 18.16 173.12 18.16 172.29 L 18.16 98.67 C 18.16 97.84 18.83 97.17 19.66 97.17 L 88.32 97.17 C 89.15 97.17 89.82 97.84 89.82 98.67 L 89.82 231.59 C 89.82 232.42 89.15 233.09 88.32 233.09 Z" fill="#ccccde" fill-rule="nonzero" group-id="2" node-id="806" stroke="none" target-height="135.919" target-width="71.667" target-x="18.155" target-y="97.169"/></g><g node-id="1010"><g node-id="1041"><path d="M 86.82 229.88 L 100.82 229.88 L 100.82 235.96 L 86.82 235.96 Z" fill="#a8a8bd" fill-rule="nonzero" group-id="3,34" node-id="812" stroke="none" target-height="6.0700073" target-width="14" target-x="86.821" target-y="229.885"/><path d="M 100.82 237.46 L 86.82 237.46 C 85.99 237.46 85.32 236.78 85.32 235.96 L 85.32 229.88 C 85.32 229.06 85.99 228.38 86.82 228.38 L 100.82 228.38 C 101.65 228.38 102.32 229.06 102.32 229.88 L 102.32 235.96 C 102.32 236.78 101.65 237.46 100.82 237.46 Z M 88.32 234.46 L 99.32 234.46 L 99.32 231.38 L 88.32 231.38 L 88.32 234.46 Z" fill="#6e6e96" fill-rule="nonzero" group-id="3,34" node-id="814" stroke="none" target-height="9.070007" target-width="17" target-x="85.321" target-y="228.385"/></g><g node-id="1042"><path d="M 151.49 229.88 L 165.49 229.88 L 165.49 235.96 L 151.49 235.96 Z" fill="#a8a8bd" fill-rule="nonzero" group-id="3,35" node-id="819" stroke="none" target-height="6.0700073" target-width="14" target-x="151.488" target-y="229.885"/><path d="M 165.49 237.46 L 151.49 237.46 C 150.66 237.46 149.99 236.78 149.99 235.96 L 149.99 229.88 C 149.99 229.06 150.66 228.38 151.49 228.38 L 165.49 228.38 C 166.32 228.38 166.99 229.06 166.99 229.88 L 166.99 235.96 C 166.99 236.78 166.32 237.46 165.49 237.46 Z M 152.99 234.46 L 163.99 234.46 L 163.99 231.38 L 152.99 231.38 L 152.99 234.46 Z" fill="#6e6e96" fill-rule="nonzero" group-id="3,35" node-id="821" stroke="none" target-height="9.070007" target-width="17" target-x="149.988" target-y="228.385"/></g><path d="M 80.49 49.29 L 173.79 49.29 L 173.79 229.88 L 80.49 229.88 Z" fill="#a8a8bd" fill-rule="nonzero" group-id="3" node-id="824" stroke="none" target-height="180.596" target-width="93.298" target-x="80.488" target-y="49.289"/><path d="M 80.49 49.29 L 91.49 49.29 L 91.49 229.88 L 80.49 229.88 Z" fill="#a8a8bd" fill-rule="nonzero" group-id="3" node-id="826" stroke="none" target-height="180.596" target-width="11" target-x="80.488" target-y="49.289"/><path d="M 162.49 49.29 L 173.79 49.29 L 173.79 229.88 L 162.49 229.88 Z" fill="#a8a8bd" fill-rule="nonzero" group-id="3" node-id="828" stroke="none" target-height="180.596" target-width="11.297989" target-x="162.488" target-y="49.289"/><path d="M 102.49 62.29 L 151.99 62.29 L 151.99 81.17 L 102.49 81.17 Z" fill="#bebed1" fill-rule="nonzero" group-id="3,36,67" node-id="834" stroke="none" target-height="18.882996" target-width="49.500008" target-x="102.488" target-y="62.289"/><path d="M 151.99 82.67 L 102.49 82.67 C 101.66 82.67 100.99 82.00 100.99 81.17 L 100.99 62.29 C 100.99 61.46 101.66 60.79 102.49 60.79 L 151.99 60.79 C 152.82 60.79 153.49 61.46 153.49 62.29 L 153.49 81.17 C 153.49 82.00 152.82 82.67 151.99 82.67 Z M 103.99 79.67 L 150.49 79.67 L 150.49 63.79 L 103.99 63.79 L 103.99 79.67 Z" fill="#6e6e96" fill-rule="nonzero" group-id="3,36,67" node-id="836" stroke="none" target-height="21.882996" target-width="52.500008" target-x="100.988" target-y="60.789"/><path d="M 102.49 95.82 L 151.99 95.82 L 151.99 114.70 L 102.49 114.70 Z" fill="#bebed1" fill-rule="nonzero" group-id="3,36,68" node-id="841" stroke="none" target-height="18.882996" target-width="49.500008" target-x="102.488" target-y="95.818"/><path d="M 151.99 116.20 L 102.49 116.20 C 101.66 116.20 100.99 115.53 100.99 114.70 L 100.99 95.82 C 100.99 94.99 101.66 94.32 102.49 94.32 L 151.99 94.32 C 152.82 94.32 153.49 94.99 153.49 95.82 L 153.49 114.70 C 153.49 115.53 152.82 116.20 151.99 116.20 Z M 103.99 113.20 L 150.49 113.20 L 150.49 97.32 L 103.99 97.32 L 103.99 113.20 Z" fill="#6e6e96" fill-rule="nonzero" group-id="3,36,68" node-id="843" stroke="none" target-height="21.882996" target-width="52.500008" target-x="100.988" target-y="94.318"/><path d="M 102.49 129.35 L 151.99 129.35 L 151.99 148.23 L 102.49 148.23 Z" fill="#bebed1" fill-rule="nonzero" group-id="3,36,69" node-id="848" stroke="none" target-height="18.882996" target-width="49.500008" target-x="102.488" target-y="129.348"/><path d="M 151.99 149.73 L 102.49 149.73 C 101.66 149.73 100.99 149.06 100.99 148.23 L 100.99 129.35 C 100.99 128.52 101.66 127.85 102.49 127.85 L 151.99 127.85 C 152.82 127.85 153.49 128.52 153.49 129.35 L 153.49 148.23 C 153.49 149.06 152.82 149.73 151.99 149.73 Z M 103.99 146.73 L 150.49 146.73 L 150.49 130.85 L 103.99 130.85 L 103.99 146.73 Z" fill="#6e6e96" fill-rule="nonzero" group-id="3,36,69" node-id="850" stroke="none" target-height="21.882996" target-width="52.500008" target-x="100.988" target-y="127.847"/><path d="M 102.49 162.88 L 151.99 162.88 L 151.99 181.76 L 102.49 181.76 Z" fill="#bebed1" fill-rule="nonzero" group-id="3,36,70" node-id="855" stroke="none" target-height="18.882996" target-width="49.500008" target-x="102.488" target-y="162.877"/><path d="M 151.99 183.26 L 102.49 183.26 C 101.66 183.26 100.99 182.59 100.99 181.76 L 100.99 162.88 C 100.99 162.05 101.66 161.38 102.49 161.38 L 151.99 161.38 C 152.82 161.38 153.49 162.05 153.49 162.88 L 153.49 181.76 C 153.49 182.59 152.82 183.26 151.99 183.26 Z M 103.99 180.26 L 150.49 180.26 L 150.49 164.38 L 103.99 164.38 L 103.99 180.26 Z" fill="#6e6e96" fill-rule="nonzero" group-id="3,36,70" node-id="857" stroke="none" target-height="21.882996" target-width="52.500008" target-x="100.988" target-y="161.377"/><path d="M 102.49 196.41 L 151.99 196.41 L 151.99 215.29 L 102.49 215.29 Z" fill="#bebed1" fill-rule="nonzero" group-id="3,36,71" node-id="862" stroke="none" target-height="18.882996" target-width="49.500008" target-x="102.488" target-y="196.406"/><path d="M 151.99 216.79 L 102.49 216.79 C 101.66 216.79 100.99 216.12 100.99 215.29 L 100.99 196.41 C 100.99 195.58 101.66 194.91 102.49 194.91 L 151.99 194.91 C 152.82 194.91 153.49 195.58 153.49 196.41 L 153.49 215.29 C 153.49 216.12 152.82 216.79 151.99 216.79 Z M 103.99 213.79 L 150.49 213.79 L 150.49 197.91 L 103.99 197.91 L 103.99 213.79 Z" fill="#6e6e96" fill-rule="nonzero" group-id="3,36,71" node-id="864" stroke="none" target-height="21.882996" target-width="52.500008" target-x="100.988" target-y="194.906"/><path d="M 147.15 71.29 C 147.15 73.13 145.66 74.62 143.82 74.62 C 141.98 74.62 140.49 73.13 140.49 71.29 C 140.49 69.45 141.98 67.96 143.82 67.96 C 145.66 67.96 147.15 69.45 147.15 71.29 Z" fill="#ffabba" fill-rule="nonzero" group-id="3,37" node-id="870" stroke="none" target-height="6.6660004" target-width="6.6660004" target-x="140.488" target-y="67.957"/><path d="M 143.82 76.12 C 141.16 76.12 138.99 73.95 138.99 71.29 C 138.99 68.62 141.16 66.46 143.82 66.46 C 146.49 66.46 148.65 68.62 148.65 71.29 C 148.65 73.95 146.49 76.12 143.82 76.12 Z M 143.82 69.46 C 142.81 69.46 141.99 70.28 141.99 71.29 C 141.99 72.30 142.81 73.12 143.82 73.12 C 144.83 73.12 145.65 72.30 145.65 71.29 C 145.65 70.28 144.83 69.46 143.82 69.46 Z" fill="#6e6e96" fill-rule="nonzero" group-id="3,37" node-id="872" stroke="none" target-height="9.666" target-width="9.666" target-x="138.988" target-y="66.457"/><path d="M 147.15 104.96 C 147.15 106.80 145.66 108.29 143.82 108.29 C 141.98 108.29 140.49 106.80 140.49 104.96 C 140.49 103.12 141.98 101.62 143.82 101.62 C 145.66 101.62 147.15 103.12 147.15 104.96 Z" fill="#bcffab" fill-rule="nonzero" group-id="3,38" node-id="877" stroke="none" target-height="6.6660004" target-width="6.6660004" target-x="140.488" target-y="101.623"/><path d="M 143.82 109.79 C 141.16 109.79 138.99 107.62 138.99 104.96 C 138.99 102.29 141.16 100.12 143.82 100.12 C 146.49 100.12 148.65 102.29 148.65 104.96 C 148.65 107.62 146.49 109.79 143.82 109.79 Z M 143.82 103.12 C 142.81 103.12 141.99 103.94 141.99 104.96 C 141.99 105.97 142.81 106.79 143.82 106.79 C 144.83 106.79 145.65 105.97 145.65 104.96 C 145.65 103.94 144.83 103.12 143.82 103.12 Z" fill="#6e6e96" fill-rule="nonzero" group-id="3,38" node-id="879" stroke="none" target-height="9.666" target-width="9.666" target-x="138.988" target-y="100.123"/><path d="M 147.15 139.61 C 147.15 141.45 145.66 142.94 143.82 142.94 C 141.98 142.94 140.49 141.45 140.49 139.61 C 140.49 137.77 141.98 136.28 143.82 136.28 C 145.66 136.28 147.15 137.77 147.15 139.61 Z" fill="#ffabba" fill-rule="nonzero" group-id="3,39" node-id="884" stroke="none" target-height="6.6660004" target-width="6.6660004" target-x="140.488" target-y="136.275"/><path d="M 143.82 144.44 C 141.16 144.44 138.99 142.27 138.99 139.61 C 138.99 136.94 141.16 134.78 143.82 134.78 C 146.49 134.78 148.65 136.94 148.65 139.61 C 148.65 142.27 146.49 144.44 143.82 144.44 Z M 143.82 137.78 C 142.81 137.78 141.99 138.60 141.99 139.61 C 141.99 140.62 142.81 141.44 143.82 141.44 C 144.83 141.44 145.65 140.62 145.65 139.61 C 145.65 138.60 144.83 137.78 143.82 137.78 Z" fill="#6e6e96" fill-rule="nonzero" group-id="3,39" node-id="886" stroke="none" target-height="9.666" target-width="9.666" target-x="138.988" target-y="134.775"/><path d="M 147.15 172.29 C 147.15 174.13 145.66 175.62 143.82 175.62 C 141.98 175.62 140.49 174.13 140.49 172.29 C 140.49 170.45 141.98 168.96 143.82 168.96 C 145.66 168.96 147.15 170.45 147.15 172.29 Z" fill="#bcffab" fill-rule="nonzero" group-id="3,40" node-id="891" stroke="none" target-height="6.6660004" target-width="6.6660004" target-x="140.488" target-y="168.955"/><path d="M 143.82 177.12 C 141.16 177.12 138.99 174.95 138.99 172.29 C 138.99 169.62 141.16 167.46 143.82 167.46 C 146.49 167.46 148.65 169.62 148.65 172.29 C 148.65 174.95 146.49 177.12 143.82 177.12 Z M 143.82 170.46 C 142.81 170.46 141.99 171.28 141.99 172.29 C 141.99 173.30 142.81 174.12 143.82 174.12 C 144.83 174.12 145.65 173.30 145.65 172.29 C 145.65 171.28 144.83 170.46 143.82 170.46 Z" fill="#6e6e96" fill-rule="nonzero" group-id="3,40" node-id="893" stroke="none" target-height="9.666" target-width="9.666" target-x="138.988" target-y="167.455"/><path d="M 147.15 206.29 C 147.15 208.13 145.66 209.62 143.82 209.62 C 141.98 209.62 140.49 208.13 140.49 206.29 C 140.49 204.45 141.98 202.96 143.82 202.96 C 145.66 202.96 147.15 204.45 147.15 206.29 Z" fill="#ffabba" fill-rule="nonzero" group-id="3,41" node-id="898" stroke="none" target-height="6.6660004" target-width="6.6660004" target-x="140.488" target-y="202.955"/><path d="M 143.82 211.12 C 141.16 211.12 138.99 208.95 138.99 206.29 C 138.99 203.62 141.16 201.46 143.82 201.46 C 146.49 201.46 148.65 203.62 148.65 206.29 C 148.65 208.95 146.49 211.12 143.82 211.12 Z M 143.82 204.46 C 142.81 204.46 141.99 205.28 141.99 206.29 C 141.99 207.30 142.81 208.12 143.82 208.12 C 144.83 208.12 145.65 207.30 145.65 206.29 C 145.65 205.28 144.83 204.46 143.82 204.46 Z" fill="#6e6e96" fill-rule="nonzero" group-id="3,41" node-id="900" stroke="none" target-height="9.666" target-width="9.666" target-x="138.988" target-y="201.455"/><path d="M 107.24 66.79 L 110.24 66.79 L 110.24 74.62 L 107.24 74.62 Z" fill="#6e6e96" fill-rule="nonzero" group-id="3,42" node-id="905" stroke="none" target-height="7.8339996" target-width="3" target-x="107.238" target-y="66.789"/><path d="M 112.99 66.79 L 115.99 66.79 L 115.99 74.62 L 112.99 74.62 Z" fill="#6e6e96" fill-rule="nonzero" group-id="3,42" node-id="907" stroke="none" target-height="7.8339996" target-width="3" target-x="112.988" target-y="66.789"/><path d="M 118.49 66.79 L 121.49 66.79 L 121.49 74.62 L 118.49 74.62 Z" fill="#6e6e96" fill-rule="nonzero" group-id="3,42" node-id="909" stroke="none" target-height="7.8339996" target-width="3" target-x="118.488" target-y="66.789"/><path d="M 107.24 101.29 L 110.24 101.29 L 110.24 109.12 L 107.24 109.12 Z" fill="#6e6e96" fill-rule="nonzero" group-id="3,43" node-id="914" stroke="none" target-height="7.8339996" target-width="3" target-x="107.238" target-y="101.289"/><path d="M 112.99 101.29 L 115.99 101.29 L 115.99 109.12 L 112.99 109.12 Z" fill="#6e6e96" fill-rule="nonzero" group-id="3,43" node-id="916" stroke="none" target-height="7.8339996" target-width="3" target-x="112.988" target-y="101.289"/><path d="M 118.49 101.29 L 121.49 101.29 L 121.49 109.12 L 118.49 109.12 Z" fill="#6e6e96" fill-rule="nonzero" group-id="3,43" node-id="918" stroke="none" target-height="7.8339996" target-width="3" target-x="118.488" target-y="101.289"/><path d="M 107.24 135.04 L 110.24 135.04 L 110.24 142.87 L 107.24 142.87 Z" fill="#6e6e96" fill-rule="nonzero" group-id="3,44" node-id="923" stroke="none" target-height="7.8339996" target-width="3" target-x="107.238" target-y="135.039"/><path d="M 112.99 135.04 L 115.99 135.04 L 115.99 142.87 L 112.99 142.87 Z" fill="#6e6e96" fill-rule="nonzero" group-id="3,44" node-id="925" stroke="none" target-height="7.8339996" target-width="3" target-x="112.988" target-y="135.039"/><path d="M 118.49 135.04 L 121.49 135.04 L 121.49 142.87 L 118.49 142.87 Z" fill="#6e6e96" fill-rule="nonzero" group-id="3,44" node-id="927" stroke="none" target-height="7.8339996" target-width="3" target-x="118.488" target-y="135.039"/><path d="M 93.49 50.96 L 162.16 50.96 L 162.16 53.62 L 93.49 53.62 Z" fill="#ebebfa" fill-opacity="0.41" fill-rule="nonzero" group-id="3,45" node-id="932" stroke="none" target-height="2.6669998" target-width="68.667" target-x="93.488" target-y="50.956"/><path d="M 107.24 168.04 L 110.24 168.04 L 110.24 175.87 L 107.24 175.87 Z" fill="#6e6e96" fill-rule="nonzero" group-id="3,46" node-id="937" stroke="none" target-height="7.8339996" target-width="3" target-x="107.238" target-y="168.039"/><path d="M 112.99 168.04 L 115.99 168.04 L 115.99 175.87 L 112.99 175.87 Z" fill="#6e6e96" fill-rule="nonzero" group-id="3,46" node-id="939" stroke="none" target-height="7.8339996" target-width="3" target-x="112.988" target-y="168.039"/><path d="M 118.49 168.04 L 121.49 168.04 L 121.49 175.87 L 118.49 175.87 Z" fill="#6e6e96" fill-rule="nonzero" group-id="3,46" node-id="941" stroke="none" target-height="7.8339996" target-width="3" target-x="118.488" target-y="168.039"/><path d="M 107.24 201.54 L 110.24 201.54 L 110.24 209.37 L 107.24 209.37 Z" fill="#6e6e96" fill-rule="nonzero" group-id="3,47" node-id="946" stroke="none" target-height="7.8339996" target-width="3" target-x="107.238" target-y="201.539"/><path d="M 112.99 201.54 L 115.99 201.54 L 115.99 209.37 L 112.99 209.37 Z" fill="#6e6e96" fill-rule="nonzero" group-id="3,47" node-id="948" stroke="none" target-height="7.8339996" target-width="3" target-x="112.988" target-y="201.539"/><path d="M 118.49 201.54 L 121.49 201.54 L 121.49 209.37 L 118.49 209.37 Z" fill="#6e6e96" fill-rule="nonzero" group-id="3,47" node-id="950" stroke="none" target-height="7.8339996" target-width="3" target-x="118.488" target-y="201.539"/><path d="M 91.49 49.29 L 95.82 49.29 L 95.82 229.88 L 91.49 229.88 Z" fill="#6e6e96" fill-opacity="0.2" fill-rule="nonzero" group-id="3,48" node-id="955" stroke="none" target-height="180.596" target-width="4.333" target-x="91.488" target-y="49.289"/><path d="M 169.49 49.29 L 173.79 49.29 L 173.79 228.62 L 169.49 228.62 Z" fill="#6e6e96" fill-opacity="0.2" fill-rule="nonzero" group-id="3,49" node-id="960" stroke="none" target-height="179.334" target-width="4.297989" target-x="169.488" target-y="49.289"/><path d="M 80.49 49.29 L 84.49 49.29 L 84.49 229.88 L 80.49 229.88 Z" fill="#ebebfa" fill-opacity="0.41" fill-rule="nonzero" group-id="3,50" node-id="965" stroke="none" target-height="180.596" target-width="4" target-x="80.488" target-y="49.289"/><path d="M 91.49 231.38 L 80.49 231.38 C 79.66 231.38 78.99 230.71 78.99 229.88 L 78.99 49.29 C 78.99 48.46 79.66 47.79 80.49 47.79 L 91.49 47.79 C 92.32 47.79 92.99 48.46 92.99 49.29 L 92.99 229.88 C 92.99 230.71 92.32 231.38 91.49 231.38 Z M 81.99 228.38 L 89.99 228.38 L 89.99 50.79 L 81.99 50.79 L 81.99 228.38 Z" fill="#6e6e96" fill-rule="nonzero" group-id="3" node-id="968" stroke="none" target-height="183.596" target-width="14" target-x="78.988" target-y="47.789"/><path d="M 162.49 49.29 L 166.49 49.29 L 166.49 229.88 L 162.49 229.88 Z" fill="#ebebfa" fill-opacity="0.41" fill-rule="nonzero" group-id="3,51" node-id="972" stroke="none" target-height="180.596" target-width="4" target-x="162.488" target-y="49.289"/><path d="M 173.78 231.38 L 162.49 231.38 C 161.66 231.38 160.99 230.71 160.99 229.88 L 160.99 49.29 C 160.99 48.46 161.66 47.79 162.49 47.79 L 173.78 47.79 C 174.61 47.79 175.28 48.46 175.28 49.29 L 175.28 229.88 C 175.28 230.71 174.61 231.38 173.78 231.38 Z M 163.99 228.38 L 172.29 228.38 L 172.29 50.79 L 163.99 50.79 L 163.99 228.38 Z" fill="#6e6e96" fill-rule="nonzero" group-id="3" node-id="975" stroke="none" target-height="183.596" target-width="14.298004" target-x="160.987" target-y="47.789"/><path d="M 173.78 231.38 L 80.49 231.38 C 79.66 231.38 78.99 230.71 78.99 229.88 L 78.99 49.29 C 78.99 48.46 79.66 47.79 80.49 47.79 L 173.79 47.79 C 174.61 47.79 175.29 48.46 175.29 49.29 L 175.29 229.88 C 175.28 230.71 174.61 231.38 173.78 231.38 Z M 81.99 228.38 L 172.29 228.38 L 172.29 50.79 L 81.99 50.79 L 81.99 228.38 Z" fill="#6e6e96" fill-rule="nonzero" group-id="3" node-id="977" stroke="none" target-height="183.596" target-width="96.298" target-x="78.988" target-y="47.789"/><path d="M 95.82 224.29 L 160.49 224.29 L 160.49 227.96 L 95.82 227.96 Z" fill="#6e6e96" fill-opacity="0.2" fill-rule="nonzero" group-id="3,52" node-id="981" stroke="none" target-height="3.6669922" target-width="64.66701" target-x="95.821" target-y="224.289"/><path d="M 102.49 211.04 L 151.99 211.04 L 151.99 215.29 L 102.49 215.29 Z" fill="#6e6e96" fill-opacity="0.15" fill-rule="nonzero" group-id="3,53" node-id="986" stroke="none" target-height="4.25" target-width="49.500008" target-x="102.488" target-y="211.039"/><path d="M 102.49 177.54 L 151.99 177.54 L 151.99 181.76 L 102.49 181.76 Z" fill="#6e6e96" fill-opacity="0.15" fill-rule="nonzero" group-id="3,54" node-id="991" stroke="none" target-height="4.220993" target-width="49.500008" target-x="102.488" target-y="177.539"/><path d="M 102.49 144.04 L 151.99 144.04 L 151.99 148.23 L 102.49 148.23 Z" fill="#6e6e96" fill-opacity="0.15" fill-rule="nonzero" group-id="3,55" node-id="996" stroke="none" target-height="4.1909943" target-width="49.500008" target-x="102.488" target-y="144.039"/><path d="M 102.49 110.29 L 151.99 110.29 L 151.99 114.70 L 102.49 114.70 Z" fill="#6e6e96" fill-opacity="0.15" fill-rule="nonzero" group-id="3,56" node-id="1001" stroke="none" target-height="4.411995" target-width="49.500008" target-x="102.488" target-y="110.289"/><path d="M 102.49 77.04 L 151.99 77.04 L 151.99 81.17 L 102.49 81.17 Z" fill="#6e6e96" fill-opacity="0.15" fill-rule="nonzero" group-id="3,57" node-id="1006" stroke="none" target-height="4.1329956" target-width="49.500008" target-x="102.488" target-y="77.039"/></g></svg>
