<svg viewBox="0 0 1024 1024" xmlns="http://www.w3.org/2000/svg"><path d="M634.88 512a87.04 87.04 0 1 1-174.08 0 87.04 87.04 0 0 1 174.08 0z m-87.04 394.24A393.728 393.728 0 0 1 222.4 734.464l62.368-32.576A324.64 324.64 0 0 0 550.4 839.68c179.552 0 325.12-145.568 325.12-325.12S729.952 189.44 550.4 189.44c-159.424 0-291.968 114.784-319.68 266.208h76.448L191.936 645.12 76.704 455.648h80.96c27.36-191.04 191.584-337.888 390.176-337.888 217.728 0 394.24 176.512 394.24 394.24S765.568 906.24 547.84 906.24z"></path></svg>